<svg width="307" height="73" viewBox="0 0 307 73" fill="none" xmlns="http://www.w3.org/2000/svg">
<path d="M5.404 4.2C6.272 4.2 7.02333 4.34467 7.658 4.634C8.302 4.92333 8.79667 5.334 9.142 5.866C9.48733 6.398 9.66 7.028 9.66 7.756C9.66 8.47467 9.48733 9.10467 9.142 9.646C8.79667 10.178 8.302 10.5887 7.658 10.878C7.02333 11.158 6.272 11.298 5.404 11.298H3.43V14H1.162V4.2H5.404ZM5.278 9.45C5.95933 9.45 6.47733 9.30533 6.832 9.016C7.18667 8.71733 7.364 8.29733 7.364 7.756C7.364 7.20533 7.18667 6.78533 6.832 6.496C6.47733 6.19733 5.95933 6.048 5.278 6.048H3.43V9.45H5.278ZM16.5922 14.168C15.1922 14.168 14.1002 13.7807 13.3162 13.006C12.5415 12.2313 12.1542 11.1253 12.1542 9.688V4.2H14.4222V9.604C14.4222 11.3587 15.1502 12.236 16.6062 12.236C17.3155 12.236 17.8568 12.026 18.2302 11.606C18.6035 11.1767 18.7902 10.5093 18.7902 9.604V4.2H21.0302V9.688C21.0302 11.1253 20.6382 12.2313 19.8542 13.006C19.0795 13.7807 17.9922 14.168 16.5922 14.168ZM31.4674 8.904C32.0274 9.08133 32.466 9.38 32.7834 9.8C33.1007 10.2107 33.2594 10.7193 33.2594 11.326C33.2594 12.1847 32.9234 12.8473 32.2514 13.314C31.5887 13.7713 30.618 14 29.3394 14H24.2714V4.2H29.0594C30.254 4.2 31.1687 4.42867 31.8034 4.886C32.4474 5.34333 32.7694 5.964 32.7694 6.748C32.7694 7.224 32.6527 7.64867 32.4194 8.022C32.1954 8.39533 31.878 8.68933 31.4674 8.904ZM26.5254 5.908V8.218H28.7794C29.3394 8.218 29.764 8.12 30.0534 7.924C30.3427 7.728 30.4874 7.43867 30.4874 7.056C30.4874 6.67333 30.3427 6.38867 30.0534 6.202C29.764 6.006 29.3394 5.908 28.7794 5.908H26.5254ZM29.1714 12.292C29.7687 12.292 30.2167 12.194 30.5154 11.998C30.8234 11.802 30.9774 11.4987 30.9774 11.088C30.9774 10.276 30.3754 9.87 29.1714 9.87H26.5254V12.292H29.1714ZM35.9765 4.2H38.2445V12.152H43.1585V14H35.9765V4.2ZM45.4257 4.2H47.6937V14H45.4257V4.2ZM55.7094 14.168C54.7108 14.168 53.8054 13.9533 52.9934 13.524C52.1908 13.0853 51.5561 12.4833 51.0894 11.718C50.6321 10.9433 50.4034 10.0707 50.4034 9.1C50.4034 8.12933 50.6321 7.26133 51.0894 6.496C51.5561 5.72133 52.1908 5.11933 52.9934 4.69C53.8054 4.25133 54.7154 4.032 55.7234 4.032C56.5728 4.032 57.3381 4.18133 58.0194 4.48C58.7101 4.77867 59.2888 5.208 59.7554 5.768L58.2994 7.112C57.6368 6.34667 56.8154 5.964 55.8354 5.964C55.2288 5.964 54.6874 6.09933 54.2114 6.37C53.7354 6.63133 53.3621 7 53.0914 7.476C52.8301 7.952 52.6994 8.49333 52.6994 9.1C52.6994 9.70667 52.8301 10.248 53.0914 10.724C53.3621 11.2 53.7354 11.5733 54.2114 11.844C54.6874 12.1053 55.2288 12.236 55.8354 12.236C56.8154 12.236 57.6368 11.8487 58.2994 11.074L59.7554 12.418C59.2888 12.9873 58.7101 13.4213 58.0194 13.72C57.3288 14.0187 56.5588 14.168 55.7094 14.168ZM68.5496 11.9H63.9996L63.1316 14H60.8076L65.1756 4.2H67.4156L71.7976 14H69.4176L68.5496 11.9ZM67.8356 10.178L66.2816 6.426L64.7276 10.178H67.8356ZM75.3522 6.048H72.2162V4.2H80.7562V6.048H77.6202V14H75.3522V6.048ZM82.9765 4.2H85.2445V14H82.9765V4.2ZM93.3162 14.168C92.2989 14.168 91.3795 13.9487 90.5582 13.51C89.7462 13.0713 89.1069 12.4693 88.6402 11.704C88.1829 10.9293 87.9542 10.0613 87.9542 9.1C87.9542 8.13867 88.1829 7.27533 88.6402 6.51C89.1069 5.73533 89.7462 5.12867 90.5582 4.69C91.3795 4.25133 92.2989 4.032 93.3162 4.032C94.3335 4.032 95.2482 4.25133 96.0602 4.69C96.8722 5.12867 97.5115 5.73533 97.9782 6.51C98.4449 7.27533 98.6782 8.13867 98.6782 9.1C98.6782 10.0613 98.4449 10.9293 97.9782 11.704C97.5115 12.4693 96.8722 13.0713 96.0602 13.51C95.2482 13.9487 94.3335 14.168 93.3162 14.168ZM93.3162 12.236C93.8949 12.236 94.4175 12.1053 94.8842 11.844C95.3509 11.5733 95.7149 11.2 95.9762 10.724C96.2469 10.248 96.3822 9.70667 96.3822 9.1C96.3822 8.49333 96.2469 7.952 95.9762 7.476C95.7149 7 95.3509 6.63133 94.8842 6.37C94.4175 6.09933 93.8949 5.964 93.3162 5.964C92.7375 5.964 92.2149 6.09933 91.7482 6.37C91.2815 6.63133 90.9129 7 90.6422 7.476C90.3809 7.952 90.2502 8.49333 90.2502 9.1C90.2502 9.70667 90.3809 10.248 90.6422 10.724C90.9129 11.2 91.2815 11.5733 91.7482 11.844C92.2149 12.1053 92.7375 12.236 93.3162 12.236ZM110.371 4.2V14H108.509L103.623 8.05V14H101.383V4.2H103.259L108.131 10.15V4.2H110.371ZM116.909 14.168C116.135 14.168 115.383 14.0653 114.655 13.86C113.937 13.6453 113.358 13.37 112.919 13.034L113.689 11.326C114.109 11.634 114.609 11.8813 115.187 12.068C115.766 12.2547 116.345 12.348 116.923 12.348C117.567 12.348 118.043 12.2547 118.351 12.068C118.659 11.872 118.813 11.6153 118.813 11.298C118.813 11.0647 118.72 10.8733 118.533 10.724C118.356 10.5653 118.123 10.4393 117.833 10.346C117.553 10.2527 117.171 10.15 116.685 10.038C115.939 9.86067 115.327 9.68333 114.851 9.506C114.375 9.32867 113.965 9.044 113.619 8.652C113.283 8.26 113.115 7.73733 113.115 7.084C113.115 6.51467 113.269 6.00133 113.577 5.544C113.885 5.07733 114.347 4.70867 114.963 4.438C115.589 4.16733 116.349 4.032 117.245 4.032C117.871 4.032 118.482 4.10667 119.079 4.256C119.677 4.40533 120.199 4.62 120.647 4.9L119.947 6.622C119.042 6.10867 118.137 5.852 117.231 5.852C116.597 5.852 116.125 5.95467 115.817 6.16C115.519 6.36533 115.369 6.636 115.369 6.972C115.369 7.308 115.542 7.56 115.887 7.728C116.242 7.88667 116.779 8.04533 117.497 8.204C118.244 8.38133 118.855 8.55867 119.331 8.736C119.807 8.91333 120.213 9.19333 120.549 9.576C120.895 9.95867 121.067 10.4767 121.067 11.13C121.067 11.69 120.909 12.2033 120.591 12.67C120.283 13.1273 119.817 13.4913 119.191 13.762C118.566 14.0327 117.805 14.168 116.909 14.168Z" fill="#24A3FF"/>
<path d="M127.5 4L132 8.5L127.5 13" stroke="#24A3FF" stroke-width="2"/>
<path d="M20.102 64L14.972 56.59H14.668H9.31V64H3.154V37.4H14.668C17.024 37.4 19.0633 37.7927 20.786 38.578C22.534 39.3633 23.8767 40.478 24.814 41.922C25.7513 43.366 26.22 45.076 26.22 47.052C26.22 49.028 25.7387 50.738 24.776 52.182C23.8387 53.6007 22.496 54.69 20.748 55.45L26.714 64H20.102ZM19.988 47.052C19.988 45.5573 19.5067 44.4173 18.544 43.632C17.5813 42.8213 16.1753 42.416 14.326 42.416H9.31V51.688H14.326C16.1753 51.688 17.5813 51.2827 18.544 50.472C19.5067 49.6613 19.988 48.5213 19.988 47.052ZM50.7054 53.854C50.7054 53.93 50.6674 54.462 50.5914 55.45H35.1254C35.404 56.7167 36.0627 57.7173 37.1014 58.452C38.14 59.1867 39.432 59.554 40.9774 59.554C42.0414 59.554 42.9787 59.402 43.7894 59.098C44.6254 58.7687 45.398 58.262 46.1074 57.578L49.2614 60.998C47.336 63.202 44.524 64.304 40.8254 64.304C38.52 64.304 36.4807 63.8607 34.7074 62.974C32.934 62.062 31.566 60.808 30.6034 59.212C29.6407 57.616 29.1594 55.8047 29.1594 53.778C29.1594 51.7767 29.628 49.978 30.5654 48.382C31.528 46.7607 32.8327 45.5067 34.4794 44.62C36.1514 43.708 38.0134 43.252 40.0654 43.252C42.0667 43.252 43.878 43.6827 45.4994 44.544C47.1207 45.4053 48.3874 46.6467 49.2994 48.268C50.2367 49.864 50.7054 51.726 50.7054 53.854ZM40.1034 47.736C38.7607 47.736 37.6334 48.116 36.7214 48.876C35.8094 49.636 35.252 50.6747 35.0494 51.992H45.1194C44.9167 50.7 44.3594 49.674 43.4474 48.914C42.5354 48.1287 41.4207 47.736 40.1034 47.736ZM64.532 64.304C62.3533 64.304 60.39 63.8607 58.642 62.974C56.9193 62.062 55.564 60.808 54.576 59.212C53.6133 57.616 53.132 55.8047 53.132 53.778C53.132 51.7513 53.6133 49.94 54.576 48.344C55.564 46.748 56.9193 45.5067 58.642 44.62C60.39 43.708 62.3533 43.252 64.532 43.252C66.6853 43.252 68.56 43.708 70.156 44.62C71.7773 45.5067 72.9553 46.786 73.69 48.458L69.092 50.928C68.028 49.0533 66.4954 48.116 64.494 48.116C62.9487 48.116 61.6693 48.6227 60.656 49.636C59.6427 50.6493 59.136 52.03 59.136 53.778C59.136 55.526 59.6427 56.9067 60.656 57.92C61.6693 58.9333 62.9487 59.44 64.494 59.44C66.5207 59.44 68.0533 58.5027 69.092 56.628L73.69 59.136C72.9553 60.7573 71.7773 62.024 70.156 62.936C68.56 63.848 66.6853 64.304 64.532 64.304ZM86.5714 64.304C84.4181 64.304 82.4801 63.8607 80.7574 62.974C79.0601 62.062 77.7301 60.808 76.7674 59.212C75.8048 57.616 75.3234 55.8047 75.3234 53.778C75.3234 51.7513 75.8048 49.94 76.7674 48.344C77.7301 46.748 79.0601 45.5067 80.7574 44.62C82.4801 43.708 84.4181 43.252 86.5714 43.252C88.7248 43.252 90.6501 43.708 92.3474 44.62C94.0448 45.5067 95.3748 46.748 96.3374 48.344C97.3001 49.94 97.7814 51.7513 97.7814 53.778C97.7814 55.8047 97.3001 57.616 96.3374 59.212C95.3748 60.808 94.0448 62.062 92.3474 62.974C90.6501 63.8607 88.7248 64.304 86.5714 64.304ZM86.5714 59.44C88.0914 59.44 89.3328 58.9333 90.2954 57.92C91.2834 56.8813 91.7774 55.5007 91.7774 53.778C91.7774 52.0553 91.2834 50.6873 90.2954 49.674C89.3328 48.6353 88.0914 48.116 86.5714 48.116C85.0514 48.116 83.7974 48.6353 82.8094 49.674C81.8214 50.6873 81.3274 52.0553 81.3274 53.778C81.3274 55.5007 81.8214 56.8813 82.8094 57.92C83.7974 58.9333 85.0514 59.44 86.5714 59.44ZM127.926 43.252C130.484 43.252 132.511 44.012 134.006 45.532C135.526 47.0267 136.286 49.2813 136.286 52.296V64H130.358V53.208C130.358 51.5867 130.016 50.3833 129.332 49.598C128.673 48.7873 127.723 48.382 126.482 48.382C125.088 48.382 123.986 48.838 123.176 49.75C122.365 50.6367 121.96 51.9667 121.96 53.74V64H116.032V53.208C116.032 49.9907 114.74 48.382 112.156 48.382C110.788 48.382 109.698 48.838 108.888 49.75C108.077 50.6367 107.672 51.9667 107.672 53.74V64H101.744V43.556H107.406V45.912C108.166 45.0507 109.09 44.392 110.18 43.936C111.294 43.48 112.51 43.252 113.828 43.252C115.272 43.252 116.576 43.5433 117.742 44.126C118.907 44.6833 119.844 45.5067 120.554 46.596C121.39 45.532 122.441 44.7087 123.708 44.126C125 43.5433 126.406 43.252 127.926 43.252ZM167.781 43.252C170.34 43.252 172.367 44.012 173.861 45.532C175.381 47.0267 176.141 49.2813 176.141 52.296V64H170.213V53.208C170.213 51.5867 169.871 50.3833 169.187 49.598C168.529 48.7873 167.579 48.382 166.337 48.382C164.944 48.382 163.842 48.838 163.031 49.75C162.221 50.6367 161.815 51.9667 161.815 53.74V64H155.887V53.208C155.887 49.9907 154.595 48.382 152.011 48.382C150.643 48.382 149.554 48.838 148.743 49.75C147.933 50.6367 147.527 51.9667 147.527 53.74V64H141.599V43.556H147.261V45.912C148.021 45.0507 148.946 44.392 150.035 43.936C151.15 43.48 152.366 43.252 153.683 43.252C155.127 43.252 156.432 43.5433 157.597 44.126C158.763 44.6833 159.7 45.5067 160.409 46.596C161.245 45.532 162.297 44.7087 163.563 44.126C164.855 43.5433 166.261 43.252 167.781 43.252ZM201.703 53.854C201.703 53.93 201.665 54.462 201.589 55.45H186.123C186.402 56.7167 187.061 57.7173 188.099 58.452C189.138 59.1867 190.43 59.554 191.975 59.554C193.039 59.554 193.977 59.402 194.787 59.098C195.623 58.7687 196.396 58.262 197.105 57.578L200.259 60.998C198.334 63.202 195.522 64.304 191.823 64.304C189.518 64.304 187.479 63.8607 185.705 62.974C183.932 62.062 182.564 60.808 181.601 59.212C180.639 57.616 180.157 55.8047 180.157 53.778C180.157 51.7767 180.626 49.978 181.563 48.382C182.526 46.7607 183.831 45.5067 185.477 44.62C187.149 43.708 189.011 43.252 191.063 43.252C193.065 43.252 194.876 43.6827 196.497 44.544C198.119 45.4053 199.385 46.6467 200.297 48.268C201.235 49.864 201.703 51.726 201.703 53.854ZM191.101 47.736C189.759 47.736 188.631 48.116 187.719 48.876C186.807 49.636 186.25 50.6747 186.047 51.992H196.117C195.915 50.7 195.357 49.674 194.445 48.914C193.533 48.1287 192.419 47.736 191.101 47.736ZM218.076 43.252C220.609 43.252 222.649 44.012 224.194 45.532C225.765 47.052 226.55 49.3067 226.55 52.296V64H220.622V53.208C220.622 51.5867 220.267 50.3833 219.558 49.598C218.849 48.7873 217.823 48.382 216.48 48.382C214.985 48.382 213.795 48.8507 212.908 49.788C212.021 50.7 211.578 52.068 211.578 53.892V64H205.65V43.556H211.312V45.95C212.097 45.0887 213.073 44.43 214.238 43.974C215.403 43.4927 216.683 43.252 218.076 43.252ZM252.97 35.804V64H247.308V61.644C245.839 63.4173 243.711 64.304 240.924 64.304C238.999 64.304 237.251 63.8733 235.68 63.012C234.135 62.1507 232.919 60.922 232.032 59.326C231.145 57.73 230.702 55.8807 230.702 53.778C230.702 51.6753 231.145 49.826 232.032 48.23C232.919 46.634 234.135 45.4053 235.68 44.544C237.251 43.6827 238.999 43.252 240.924 43.252C243.533 43.252 245.573 44.0753 247.042 45.722V35.804H252.97ZM241.95 59.44C243.445 59.44 244.686 58.9333 245.674 57.92C246.662 56.8813 247.156 55.5007 247.156 53.778C247.156 52.0553 246.662 50.6873 245.674 49.674C244.686 48.6353 243.445 48.116 241.95 48.116C240.43 48.116 239.176 48.6353 238.188 49.674C237.2 50.6873 236.706 52.0553 236.706 53.778C236.706 55.5007 237.2 56.8813 238.188 57.92C239.176 58.9333 240.43 59.44 241.95 59.44ZM278.483 53.854C278.483 53.93 278.445 54.462 278.369 55.45H262.903C263.181 56.7167 263.84 57.7173 264.879 58.452C265.917 59.1867 267.209 59.554 268.755 59.554C269.819 59.554 270.756 59.402 271.567 59.098C272.403 58.7687 273.175 58.262 273.885 57.578L277.039 60.998C275.113 63.202 272.301 64.304 268.603 64.304C266.297 64.304 264.258 63.8607 262.485 62.974C260.711 62.062 259.343 60.808 258.381 59.212C257.418 57.616 256.937 55.8047 256.937 53.778C256.937 51.7767 257.405 49.978 258.343 48.382C259.305 46.7607 260.61 45.5067 262.257 44.62C263.929 43.708 265.791 43.252 267.843 43.252C269.844 43.252 271.655 43.6827 273.277 44.544C274.898 45.4053 276.165 46.6467 277.077 48.268C278.014 49.864 278.483 51.726 278.483 53.854ZM267.881 47.736C266.538 47.736 265.411 48.116 264.499 48.876C263.587 49.636 263.029 50.6747 262.827 51.992H272.897C272.694 50.7 272.137 49.674 271.225 48.914C270.313 48.1287 269.198 47.736 267.881 47.736ZM303.253 35.804V64H297.591V61.644C296.122 63.4173 293.994 64.304 291.207 64.304C289.282 64.304 287.534 63.8733 285.963 63.012C284.418 62.1507 283.202 60.922 282.315 59.326C281.429 57.73 280.985 55.8807 280.985 53.778C280.985 51.6753 281.429 49.826 282.315 48.23C283.202 46.634 284.418 45.4053 285.963 44.544C287.534 43.6827 289.282 43.252 291.207 43.252C293.817 43.252 295.856 44.0753 297.325 45.722V35.804H303.253ZM292.233 59.44C293.728 59.44 294.969 58.9333 295.957 57.92C296.945 56.8813 297.439 55.5007 297.439 53.778C297.439 52.0553 296.945 50.6873 295.957 49.674C294.969 48.6353 293.728 48.116 292.233 48.116C290.713 48.116 289.459 48.6353 288.471 49.674C287.483 50.6873 286.989 52.0553 286.989 53.778C286.989 55.5007 287.483 56.8813 288.471 57.92C289.459 58.9333 290.713 59.44 292.233 59.44Z" fill="url(#paint0_linear_22724_8551)"/>
<defs>
<linearGradient id="paint0_linear_22724_8551" x1="2.39844" y1="39.88" x2="307.297" y2="44.4738" gradientUnits="userSpaceOnUse">
<stop stop-color="#F0145A"/>
<stop offset="1" stop-color="#EF8080"/>
</linearGradient>
</defs>
</svg>
